<svg viewBox="0 0 360 360" fill="none" xmlns="http://www.w3.org/2000/svg">
<g filter="url(#filter0_di_284_552)">
<rect x="30" y="30" width="300" height="300" rx="60" fill="#EDF2FB"/>
</g>
<g filter="url(#filter1_di_284_552)">
<path d="M119.1 230.027C122.083 230.944 123.574 231.402 124.803 232.228C125.891 232.96 126.824 233.898 127.549 234.99C128.369 236.223 128.819 237.717 129.719 240.705L133.297 252.579C138.693 270.488 141.391 279.442 139.372 283.121C137.632 286.291 134.315 288.275 130.698 288.308C126.502 288.347 119.889 281.734 106.664 268.509L91.1076 252.953C77.7445 239.59 71.063 232.908 71.1089 228.702C71.1485 225.078 73.1463 221.758 76.3305 220.027C80.0256 218.017 89.0578 220.793 107.122 226.345L119.1 230.027Z" fill="#2C2D35"/>
</g>
<g filter="url(#filter2_di_284_552)">
<path d="M128.395 119.03C127.462 122.008 126.995 123.497 126.162 124.722C125.424 125.805 124.481 126.734 123.385 127.453C122.147 128.266 120.65 128.708 117.656 129.591L105.887 133.065C88.1348 138.305 79.2588 140.925 75.5968 138.896C72.4403 137.147 70.4709 133.833 70.4436 130.224C70.4119 126.038 76.9558 119.494 90.0436 106.406L105.598 90.8514C119.099 77.3505 125.85 70.6001 130.065 70.653C133.697 70.6985 137.019 72.7101 138.743 75.9078C140.743 79.6189 137.889 88.7289 132.18 106.949L128.395 119.03Z" fill="#2C2D35"/>
</g>
<g filter="url(#filter3_di_284_552)">
<path d="M240.055 127.606C237.076 126.673 235.587 126.206 234.363 125.373C233.279 124.635 232.351 123.691 231.631 122.595C230.818 121.357 230.376 119.861 229.493 116.867L226.019 105.097C220.779 87.3454 218.16 78.4695 220.189 74.8075C221.937 71.6509 225.251 69.6815 228.86 69.6542C233.046 69.6226 239.59 76.1665 252.678 89.2543L268.233 104.809C281.734 118.31 288.484 125.06 288.431 129.276C288.386 132.908 286.374 136.23 283.176 137.953C279.465 139.953 270.355 137.099 252.136 131.391L240.055 127.606Z" fill="#2C2D35"/>
</g>
<g filter="url(#filter4_di_284_552)">
<path d="M231.478 239.265C232.412 236.287 232.878 234.798 233.712 233.573C234.449 232.49 235.393 231.561 236.489 230.842C237.727 230.029 239.224 229.587 242.217 228.703L253.987 225.23C271.739 219.99 280.615 217.37 284.277 219.399C287.433 221.148 289.403 224.462 289.43 228.071C289.462 232.257 282.918 238.801 269.83 251.889L254.275 267.444C240.774 280.944 234.024 287.695 229.808 287.642C226.176 287.596 222.854 285.585 221.131 282.387C219.131 278.676 221.985 269.566 227.693 251.346L231.478 239.265Z" fill="#2C2D35"/>
</g>
<g filter="url(#filter5_di_284_552)">
<path d="M273.904 188.925C271.084 185.33 269.674 183.532 269.146 181.549C268.68 179.799 268.698 177.956 269.198 176.215C269.765 174.242 271.21 172.473 274.099 168.933L277.608 164.634C286.335 153.944 290.698 148.599 294.517 148.025C297.824 147.529 301.16 148.717 303.407 151.193C306.003 154.052 306.003 160.952 306.003 174.752L306.003 183.525C306.003 197.704 306.003 204.793 303.368 207.662C301.087 210.145 297.709 211.311 294.383 210.765C290.538 210.134 286.163 204.556 277.413 193.399L273.904 188.925Z" fill="#2C2D35"/>
</g>
<g filter="url(#filter6_di_284_552)">
<path d="M170.863 270.99C174.458 268.17 176.256 266.76 178.239 266.232C179.989 265.766 181.832 265.784 183.573 266.284C185.545 266.851 187.315 268.296 190.855 271.185L195.153 274.694C205.844 283.421 211.189 287.784 211.763 291.603C212.259 294.91 211.07 298.246 208.595 300.493C205.735 303.089 198.835 303.089 185.035 303.089L176.263 303.089C162.084 303.089 154.995 303.089 152.126 300.453C149.643 298.173 148.477 294.795 149.023 291.468C149.654 287.624 155.232 283.249 166.389 274.499L170.863 270.99Z" fill="#2C2D35"/>
</g>
<g filter="url(#filter7_di_284_552)">
<path d="M88.0908 170.07C90.9107 173.665 92.3206 175.463 92.8487 177.446C93.3145 179.196 93.2965 181.039 92.7966 182.78C92.23 184.753 90.7852 186.522 87.8957 190.062L84.3867 194.361C75.6599 205.051 71.2965 210.396 67.4775 210.97C64.171 211.466 60.8352 210.278 58.5879 207.802C55.9921 204.942 55.9921 198.042 55.9921 184.243L55.9921 175.47C55.9921 161.291 55.9921 154.202 58.6273 151.333C60.9078 148.85 64.2858 147.684 67.6124 148.23C71.4565 148.861 75.8316 154.439 84.5818 165.596L88.0908 170.07Z" fill="#2C2D35"/>
</g>
<g filter="url(#filter8_di_284_552)">
<path d="M189.011 87.2979C185.416 90.1178 183.618 91.5277 181.634 92.0558C179.885 92.5216 178.041 92.5036 176.301 92.0037C174.328 91.4371 172.558 89.9923 169.019 87.1028L164.72 83.5938C154.03 74.867 148.685 70.5036 148.111 66.6846C147.614 63.3781 148.803 60.0423 151.279 57.795C154.138 55.1992 161.038 55.1992 174.838 55.1992L183.611 55.1992C197.789 55.1992 204.879 55.1992 207.748 57.8344C210.23 60.1149 211.397 63.4929 210.851 66.8195C210.22 70.6636 204.641 75.0387 193.485 83.7889L189.011 87.2979Z" fill="#2C2D35"/>
</g>
<g filter="url(#filter9_di_284_552)">
<rect x="179.937" y="101.366" width="50" height="50" rx="11" transform="rotate(45 179.937 101.366)" fill="#E15554"/>
</g>
<g filter="url(#filter10_di_284_552)">
<rect x="222.363" y="143.792" width="50" height="50" rx="11" transform="rotate(45 222.363 143.792)" fill="#FFA500"/>
</g>
<g filter="url(#filter11_di_284_552)">
<rect x="137.51" y="143.792" width="50" height="50" rx="11" transform="rotate(45 137.51 143.792)" fill="#5BB381"/>
</g>
<g filter="url(#filter12_di_284_552)">
<rect x="179.937" y="186.219" width="50" height="50" rx="11" transform="rotate(45 179.937 186.219)" fill="#4E9DE2"/>
</g>
<defs>
<filter id="filter0_di_284_552" x="0" y="0" width="360" height="360" filterUnits="userSpaceOnUse" color-interpolation-filters="sRGB">
<feFlood flood-opacity="0" result="BackgroundImageFix"/>
<feColorMatrix in="SourceAlpha" type="matrix" values="0 0 0 0 0 0 0 0 0 0 0 0 0 0 0 0 0 0 127 0" result="hardAlpha"/>
<feOffset/>
<feGaussianBlur stdDeviation="15"/>
<feComposite in2="hardAlpha" operator="out"/>
<feColorMatrix type="matrix" values="0 0 0 0 0 0 0 0 0 0 0 0 0 0 0 0 0 0 0.25 0"/>
<feBlend mode="normal" in2="BackgroundImageFix" result="effect1_dropShadow_284_552"/>
<feBlend mode="normal" in="SourceGraphic" in2="effect1_dropShadow_284_552" result="shape"/>
<feColorMatrix in="SourceAlpha" type="matrix" values="0 0 0 0 0 0 0 0 0 0 0 0 0 0 0 0 0 0 127 0" result="hardAlpha"/>
<feOffset/>
<feGaussianBlur stdDeviation="5"/>
<feComposite in2="hardAlpha" operator="arithmetic" k2="-1" k3="1"/>
<feColorMatrix type="matrix" values="0 0 0 0 0.172549 0 0 0 0 0.176471 0 0 0 0 0.207843 0 0 0 0.25 0"/>
<feBlend mode="normal" in2="shape" result="effect2_innerShadow_284_552"/>
</filter>
<filter id="filter1_di_284_552" x="61.1086" y="209.374" width="88.9328" height="88.9348" filterUnits="userSpaceOnUse" color-interpolation-filters="sRGB">
<feFlood flood-opacity="0" result="BackgroundImageFix"/>
<feColorMatrix in="SourceAlpha" type="matrix" values="0 0 0 0 0 0 0 0 0 0 0 0 0 0 0 0 0 0 127 0" result="hardAlpha"/>
<feOffset/>
<feGaussianBlur stdDeviation="5"/>
<feComposite in2="hardAlpha" operator="out"/>
<feColorMatrix type="matrix" values="0 0 0 0 0 0 0 0 0 0 0 0 0 0 0 0 0 0 0.25 0"/>
<feBlend mode="normal" in2="BackgroundImageFix" result="effect1_dropShadow_284_552"/>
<feBlend mode="normal" in="SourceGraphic" in2="effect1_dropShadow_284_552" result="shape"/>
<feColorMatrix in="SourceAlpha" type="matrix" values="0 0 0 0 0 0 0 0 0 0 0 0 0 0 0 0 0 0 127 0" result="hardAlpha"/>
<feOffset/>
<feGaussianBlur stdDeviation="2.5"/>
<feComposite in2="hardAlpha" operator="arithmetic" k2="-1" k3="1"/>
<feColorMatrix type="matrix" values="0 0 0 0 1 0 0 0 0 1 0 0 0 0 1 0 0 0 0.5 0"/>
<feBlend mode="normal" in2="shape" result="effect2_innerShadow_284_552"/>
</filter>
<filter id="filter2_di_284_552" x="60.4435" y="60.6526" width="88.9359" height="88.93" filterUnits="userSpaceOnUse" color-interpolation-filters="sRGB">
<feFlood flood-opacity="0" result="BackgroundImageFix"/>
<feColorMatrix in="SourceAlpha" type="matrix" values="0 0 0 0 0 0 0 0 0 0 0 0 0 0 0 0 0 0 127 0" result="hardAlpha"/>
<feOffset/>
<feGaussianBlur stdDeviation="5"/>
<feComposite in2="hardAlpha" operator="out"/>
<feColorMatrix type="matrix" values="0 0 0 0 0 0 0 0 0 0 0 0 0 0 0 0 0 0 0.25 0"/>
<feBlend mode="normal" in2="BackgroundImageFix" result="effect1_dropShadow_284_552"/>
<feBlend mode="normal" in="SourceGraphic" in2="effect1_dropShadow_284_552" result="shape"/>
<feColorMatrix in="SourceAlpha" type="matrix" values="0 0 0 0 0 0 0 0 0 0 0 0 0 0 0 0 0 0 127 0" result="hardAlpha"/>
<feOffset/>
<feGaussianBlur stdDeviation="2.5"/>
<feComposite in2="hardAlpha" operator="arithmetic" k2="-1" k3="1"/>
<feColorMatrix type="matrix" values="0 0 0 0 1 0 0 0 0 1 0 0 0 0 1 0 0 0 0.5 0"/>
<feBlend mode="normal" in2="shape" result="effect2_innerShadow_284_552"/>
</filter>
<filter id="filter3_di_284_552" x="209.502" y="59.6541" width="88.93" height="88.936" filterUnits="userSpaceOnUse" color-interpolation-filters="sRGB">
<feFlood flood-opacity="0" result="BackgroundImageFix"/>
<feColorMatrix in="SourceAlpha" type="matrix" values="0 0 0 0 0 0 0 0 0 0 0 0 0 0 0 0 0 0 127 0" result="hardAlpha"/>
<feOffset/>
<feGaussianBlur stdDeviation="5"/>
<feComposite in2="hardAlpha" operator="out"/>
<feColorMatrix type="matrix" values="0 0 0 0 0 0 0 0 0 0 0 0 0 0 0 0 0 0 0.25 0"/>
<feBlend mode="normal" in2="BackgroundImageFix" result="effect1_dropShadow_284_552"/>
<feBlend mode="normal" in="SourceGraphic" in2="effect1_dropShadow_284_552" result="shape"/>
<feColorMatrix in="SourceAlpha" type="matrix" values="0 0 0 0 0 0 0 0 0 0 0 0 0 0 0 0 0 0 127 0" result="hardAlpha"/>
<feOffset/>
<feGaussianBlur stdDeviation="2.5"/>
<feComposite in2="hardAlpha" operator="arithmetic" k2="-1" k3="1"/>
<feColorMatrix type="matrix" values="0 0 0 0 1 0 0 0 0 1 0 0 0 0 1 0 0 0 0.5 0"/>
<feBlend mode="normal" in2="shape" result="effect2_innerShadow_284_552"/>
</filter>
<filter id="filter4_di_284_552" x="210.494" y="208.712" width="88.936" height="88.93" filterUnits="userSpaceOnUse" color-interpolation-filters="sRGB">
<feFlood flood-opacity="0" result="BackgroundImageFix"/>
<feColorMatrix in="SourceAlpha" type="matrix" values="0 0 0 0 0 0 0 0 0 0 0 0 0 0 0 0 0 0 127 0" result="hardAlpha"/>
<feOffset/>
<feGaussianBlur stdDeviation="5"/>
<feComposite in2="hardAlpha" operator="out"/>
<feColorMatrix type="matrix" values="0 0 0 0 0 0 0 0 0 0 0 0 0 0 0 0 0 0 0.25 0"/>
<feBlend mode="normal" in2="BackgroundImageFix" result="effect1_dropShadow_284_552"/>
<feBlend mode="normal" in="SourceGraphic" in2="effect1_dropShadow_284_552" result="shape"/>
<feColorMatrix in="SourceAlpha" type="matrix" values="0 0 0 0 0 0 0 0 0 0 0 0 0 0 0 0 0 0 127 0" result="hardAlpha"/>
<feOffset/>
<feGaussianBlur stdDeviation="2.5"/>
<feComposite in2="hardAlpha" operator="arithmetic" k2="-1" k3="1"/>
<feColorMatrix type="matrix" values="0 0 0 0 1 0 0 0 0 1 0 0 0 0 1 0 0 0 0.5 0"/>
<feBlend mode="normal" in2="shape" result="effect2_innerShadow_284_552"/>
</filter>
<filter id="filter5_di_284_552" x="258.81" y="137.914" width="57.1931" height="82.9832" filterUnits="userSpaceOnUse" color-interpolation-filters="sRGB">
<feFlood flood-opacity="0" result="BackgroundImageFix"/>
<feColorMatrix in="SourceAlpha" type="matrix" values="0 0 0 0 0 0 0 0 0 0 0 0 0 0 0 0 0 0 127 0" result="hardAlpha"/>
<feOffset/>
<feGaussianBlur stdDeviation="5"/>
<feComposite in2="hardAlpha" operator="out"/>
<feColorMatrix type="matrix" values="0 0 0 0 0 0 0 0 0 0 0 0 0 0 0 0 0 0 0.25 0"/>
<feBlend mode="normal" in2="BackgroundImageFix" result="effect1_dropShadow_284_552"/>
<feBlend mode="normal" in="SourceGraphic" in2="effect1_dropShadow_284_552" result="shape"/>
<feColorMatrix in="SourceAlpha" type="matrix" values="0 0 0 0 0 0 0 0 0 0 0 0 0 0 0 0 0 0 127 0" result="hardAlpha"/>
<feOffset/>
<feGaussianBlur stdDeviation="2.5"/>
<feComposite in2="hardAlpha" operator="arithmetic" k2="-1" k3="1"/>
<feColorMatrix type="matrix" values="0 0 0 0 1 0 0 0 0 1 0 0 0 0 1 0 0 0 0.5 0"/>
<feBlend mode="normal" in2="shape" result="effect2_innerShadow_284_552"/>
</filter>
<filter id="filter6_di_284_552" x="138.89" y="255.895" width="82.9832" height="57.1931" filterUnits="userSpaceOnUse" color-interpolation-filters="sRGB">
<feFlood flood-opacity="0" result="BackgroundImageFix"/>
<feColorMatrix in="SourceAlpha" type="matrix" values="0 0 0 0 0 0 0 0 0 0 0 0 0 0 0 0 0 0 127 0" result="hardAlpha"/>
<feOffset/>
<feGaussianBlur stdDeviation="5"/>
<feComposite in2="hardAlpha" operator="out"/>
<feColorMatrix type="matrix" values="0 0 0 0 0 0 0 0 0 0 0 0 0 0 0 0 0 0 0.25 0"/>
<feBlend mode="normal" in2="BackgroundImageFix" result="effect1_dropShadow_284_552"/>
<feBlend mode="normal" in="SourceGraphic" in2="effect1_dropShadow_284_552" result="shape"/>
<feColorMatrix in="SourceAlpha" type="matrix" values="0 0 0 0 0 0 0 0 0 0 0 0 0 0 0 0 0 0 127 0" result="hardAlpha"/>
<feOffset/>
<feGaussianBlur stdDeviation="2.5"/>
<feComposite in2="hardAlpha" operator="arithmetic" k2="-1" k3="1"/>
<feColorMatrix type="matrix" values="0 0 0 0 1 0 0 0 0 1 0 0 0 0 1 0 0 0 0.5 0"/>
<feBlend mode="normal" in2="shape" result="effect2_innerShadow_284_552"/>
</filter>
<filter id="filter7_di_284_552" x="45.9921" y="138.098" width="57.1931" height="82.9831" filterUnits="userSpaceOnUse" color-interpolation-filters="sRGB">
<feFlood flood-opacity="0" result="BackgroundImageFix"/>
<feColorMatrix in="SourceAlpha" type="matrix" values="0 0 0 0 0 0 0 0 0 0 0 0 0 0 0 0 0 0 127 0" result="hardAlpha"/>
<feOffset/>
<feGaussianBlur stdDeviation="5"/>
<feComposite in2="hardAlpha" operator="out"/>
<feColorMatrix type="matrix" values="0 0 0 0 0 0 0 0 0 0 0 0 0 0 0 0 0 0 0.25 0"/>
<feBlend mode="normal" in2="BackgroundImageFix" result="effect1_dropShadow_284_552"/>
<feBlend mode="normal" in="SourceGraphic" in2="effect1_dropShadow_284_552" result="shape"/>
<feColorMatrix in="SourceAlpha" type="matrix" values="0 0 0 0 0 0 0 0 0 0 0 0 0 0 0 0 0 0 127 0" result="hardAlpha"/>
<feOffset/>
<feGaussianBlur stdDeviation="2.5"/>
<feComposite in2="hardAlpha" operator="arithmetic" k2="-1" k3="1"/>
<feColorMatrix type="matrix" values="0 0 0 0 1 0 0 0 0 1 0 0 0 0 1 0 0 0 0.5 0"/>
<feBlend mode="normal" in2="shape" result="effect2_innerShadow_284_552"/>
</filter>
<filter id="filter8_di_284_552" x="138" y="45.1992" width="82.9832" height="57.1931" filterUnits="userSpaceOnUse" color-interpolation-filters="sRGB">
<feFlood flood-opacity="0" result="BackgroundImageFix"/>
<feColorMatrix in="SourceAlpha" type="matrix" values="0 0 0 0 0 0 0 0 0 0 0 0 0 0 0 0 0 0 127 0" result="hardAlpha"/>
<feOffset/>
<feGaussianBlur stdDeviation="5"/>
<feComposite in2="hardAlpha" operator="out"/>
<feColorMatrix type="matrix" values="0 0 0 0 0 0 0 0 0 0 0 0 0 0 0 0 0 0 0.25 0"/>
<feBlend mode="normal" in2="BackgroundImageFix" result="effect1_dropShadow_284_552"/>
<feBlend mode="normal" in="SourceGraphic" in2="effect1_dropShadow_284_552" result="shape"/>
<feColorMatrix in="SourceAlpha" type="matrix" values="0 0 0 0 0 0 0 0 0 0 0 0 0 0 0 0 0 0 127 0" result="hardAlpha"/>
<feOffset/>
<feGaussianBlur stdDeviation="2.5"/>
<feComposite in2="hardAlpha" operator="arithmetic" k2="-1" k3="1"/>
<feColorMatrix type="matrix" values="0 0 0 0 1 0 0 0 0 1 0 0 0 0 1 0 0 0 0.5 0"/>
<feBlend mode="normal" in2="shape" result="effect2_innerShadow_284_552"/>
</filter>
<filter id="filter9_di_284_552" x="139.138" y="95.9221" width="81.598" height="81.598" filterUnits="userSpaceOnUse" color-interpolation-filters="sRGB">
<feFlood flood-opacity="0" result="BackgroundImageFix"/>
<feColorMatrix in="SourceAlpha" type="matrix" values="0 0 0 0 0 0 0 0 0 0 0 0 0 0 0 0 0 0 127 0" result="hardAlpha"/>
<feOffset/>
<feGaussianBlur stdDeviation="5"/>
<feComposite in2="hardAlpha" operator="out"/>
<feColorMatrix type="matrix" values="0 0 0 0 0.882353 0 0 0 0 0.333333 0 0 0 0 0.329412 0 0 0 0.5 0"/>
<feBlend mode="normal" in2="BackgroundImageFix" result="effect1_dropShadow_284_552"/>
<feBlend mode="normal" in="SourceGraphic" in2="effect1_dropShadow_284_552" result="shape"/>
<feColorMatrix in="SourceAlpha" type="matrix" values="0 0 0 0 0 0 0 0 0 0 0 0 0 0 0 0 0 0 127 0" result="hardAlpha"/>
<feOffset/>
<feGaussianBlur stdDeviation="5"/>
<feComposite in2="hardAlpha" operator="arithmetic" k2="-1" k3="1"/>
<feColorMatrix type="matrix" values="0 0 0 0 1 0 0 0 0 1 0 0 0 0 1 0 0 0 0.5 0"/>
<feBlend mode="normal" in2="shape" result="effect2_innerShadow_284_552"/>
</filter>
<filter id="filter10_di_284_552" x="181.564" y="138.348" width="81.598" height="81.598" filterUnits="userSpaceOnUse" color-interpolation-filters="sRGB">
<feFlood flood-opacity="0" result="BackgroundImageFix"/>
<feColorMatrix in="SourceAlpha" type="matrix" values="0 0 0 0 0 0 0 0 0 0 0 0 0 0 0 0 0 0 127 0" result="hardAlpha"/>
<feOffset/>
<feGaussianBlur stdDeviation="5"/>
<feComposite in2="hardAlpha" operator="out"/>
<feColorMatrix type="matrix" values="0 0 0 0 1 0 0 0 0 0.647059 0 0 0 0 0 0 0 0 0.5 0"/>
<feBlend mode="normal" in2="BackgroundImageFix" result="effect1_dropShadow_284_552"/>
<feBlend mode="normal" in="SourceGraphic" in2="effect1_dropShadow_284_552" result="shape"/>
<feColorMatrix in="SourceAlpha" type="matrix" values="0 0 0 0 0 0 0 0 0 0 0 0 0 0 0 0 0 0 127 0" result="hardAlpha"/>
<feOffset/>
<feGaussianBlur stdDeviation="5"/>
<feComposite in2="hardAlpha" operator="arithmetic" k2="-1" k3="1"/>
<feColorMatrix type="matrix" values="0 0 0 0 1 0 0 0 0 1 0 0 0 0 1 0 0 0 0.5 0"/>
<feBlend mode="normal" in2="shape" result="effect2_innerShadow_284_552"/>
</filter>
<filter id="filter11_di_284_552" x="96.7114" y="138.348" width="81.598" height="81.598" filterUnits="userSpaceOnUse" color-interpolation-filters="sRGB">
<feFlood flood-opacity="0" result="BackgroundImageFix"/>
<feColorMatrix in="SourceAlpha" type="matrix" values="0 0 0 0 0 0 0 0 0 0 0 0 0 0 0 0 0 0 127 0" result="hardAlpha"/>
<feOffset/>
<feGaussianBlur stdDeviation="5"/>
<feComposite in2="hardAlpha" operator="out"/>
<feColorMatrix type="matrix" values="0 0 0 0 0.6 0 0 0 0 0.4825 0 0 0 0 0.4825 0 0 0 0.5 0"/>
<feBlend mode="normal" in2="BackgroundImageFix" result="effect1_dropShadow_284_552"/>
<feBlend mode="normal" in="SourceGraphic" in2="effect1_dropShadow_284_552" result="shape"/>
<feColorMatrix in="SourceAlpha" type="matrix" values="0 0 0 0 0 0 0 0 0 0 0 0 0 0 0 0 0 0 127 0" result="hardAlpha"/>
<feOffset/>
<feGaussianBlur stdDeviation="5"/>
<feComposite in2="hardAlpha" operator="arithmetic" k2="-1" k3="1"/>
<feColorMatrix type="matrix" values="0 0 0 0 1 0 0 0 0 1 0 0 0 0 1 0 0 0 0.5 0"/>
<feBlend mode="normal" in2="shape" result="effect2_innerShadow_284_552"/>
</filter>
<filter id="filter12_di_284_552" x="139.138" y="180.775" width="81.598" height="81.598" filterUnits="userSpaceOnUse" color-interpolation-filters="sRGB">
<feFlood flood-opacity="0" result="BackgroundImageFix"/>
<feColorMatrix in="SourceAlpha" type="matrix" values="0 0 0 0 0 0 0 0 0 0 0 0 0 0 0 0 0 0 127 0" result="hardAlpha"/>
<feOffset/>
<feGaussianBlur stdDeviation="5"/>
<feComposite in2="hardAlpha" operator="out"/>
<feColorMatrix type="matrix" values="0 0 0 0 0.305882 0 0 0 0 0.615686 0 0 0 0 0.886275 0 0 0 0.5 0"/>
<feBlend mode="normal" in2="BackgroundImageFix" result="effect1_dropShadow_284_552"/>
<feBlend mode="normal" in="SourceGraphic" in2="effect1_dropShadow_284_552" result="shape"/>
<feColorMatrix in="SourceAlpha" type="matrix" values="0 0 0 0 0 0 0 0 0 0 0 0 0 0 0 0 0 0 127 0" result="hardAlpha"/>
<feOffset/>
<feGaussianBlur stdDeviation="5"/>
<feComposite in2="hardAlpha" operator="arithmetic" k2="-1" k3="1"/>
<feColorMatrix type="matrix" values="0 0 0 0 1 0 0 0 0 1 0 0 0 0 1 0 0 0 0.5 0"/>
<feBlend mode="normal" in2="shape" result="effect2_innerShadow_284_552"/>
</filter>
</defs>
</svg>
